<?xml version="1.0" standalone="no"?>
<!DOCTYPE svg PUBLIC "-//W3C//DTD SVG 20010904//EN"
 "http://www.w3.org/TR/2001/REC-SVG-20010904/DTD/svg10.dtd">
<svg version="1.0" xmlns="http://www.w3.org/2000/svg"
 width="1005.000000pt" height="1005.000000pt" viewBox="0 0 1005.000000 1005.000000"
 preserveAspectRatio="xMidYMid meet">
<metadata>
Created by potrace 1.11, written by Peter Selinger 2001-2013
</metadata>
<g transform="translate(0.000000,1005.000000) scale(0.100000,-0.100000)"
fill="#000000" stroke="none">
<path d="M4866 9111 c-10 -4 -36 -6 -57 -4 -22 2 -39 0 -39 -5 0 -4 -20 -7
-45 -7 -30 0 -49 -5 -55 -15 -8 -12 -12 -12 -18 -3 -6 10 -17 7 -42 -12 -41
-31 -43 -31 -35 -2 l6 22 -19 -22 c-16 -18 -21 -20 -26 -8 -4 11 -11 12 -28 6
-13 -5 -27 -10 -33 -11 -5 -2 -20 -7 -33 -13 -18 -8 -26 -8 -34 4 -8 11 -9 11
-4 -3 3 -10 1 -20 -4 -23 -4 -3 -10 0 -12 6 -7 20 -38 -3 -39 -30 l-1 -26 -13
30 c-8 17 -14 24 -15 18 0 -7 -9 -13 -21 -13 -13 0 -23 -8 -27 -22 -5 -21 -6
-21 -13 -2 -7 18 -8 18 -8 0 -1 -13 -7 -17 -19 -14 -10 3 -33 -5 -52 -18 -25
-18 -36 -21 -42 -11 -6 9 -8 9 -8 0 0 -8 -14 -11 -40 -10 -29 2 -40 -1 -40
-11 0 -12 -3 -12 -14 -2 -12 9 -22 6 -53 -14 -21 -14 -43 -26 -49 -26 -6 0
-17 -7 -24 -15 -7 -8 -19 -15 -27 -15 -12 0 -13 3 -4 13 6 8 7 18 3 22 -4 5
-1 5 6 1 18 -10 38 4 21 15 -10 6 -11 9 -1 9 6 0 12 4 12 9 0 13 -50 7 -59 -7
-3 -6 -15 -10 -26 -9 -14 1 -19 -3 -17 -15 2 -11 -3 -18 -12 -18 -8 0 -17 -8
-19 -17 -3 -13 -5 -12 -6 5 0 13 -5 21 -10 18 -10 -6 -24 -63 -22 -86 1 -11
-1 -10 -9 3 -6 9 -8 27 -5 40 5 14 -2 9 -19 -15 -14 -20 -26 -44 -26 -53 0 -9
-6 -15 -12 -13 -7 3 -19 -1 -26 -9 -8 -7 -19 -10 -25 -6 -8 4 -8 1 1 -9 7 -8
9 -24 5 -33 -4 -13 -3 -16 5 -11 7 4 12 3 12 -1 0 -12 -22 -33 -34 -33 -5 0
-7 3 -3 6 3 3 -2 14 -10 24 -16 18 -17 18 -33 -3 -14 -17 -15 -25 -6 -39 13
-21 41 -24 33 -4 -4 10 0 12 14 9 10 -3 19 -9 19 -13 0 -10 -64 -51 -88 -55
-9 -2 -18 -4 -20 -4 -1 -1 2 -10 8 -22 13 -24 4 -41 -10 -19 -8 13 -10 12 -10
-2 0 -10 5 -18 10 -18 17 0 11 -28 -7 -34 -10 -3 -6 -4 10 -2 31 4 34 -1 10
-21 -16 -12 -15 -13 10 -7 17 4 27 2 27 -5 0 -6 -5 -11 -11 -11 -5 0 -8 -4 -5
-9 3 -5 15 -7 26 -4 14 4 20 0 20 -12 0 -12 -5 -15 -17 -10 -21 8 -21 8 -53 6
-20 -1 -22 -3 -10 -11 12 -8 12 -10 -5 -10 -17 0 -17 -2 -5 -10 10 -6 11 -10
3 -10 -7 0 -13 -5 -13 -11 0 -6 9 -8 22 -3 21 6 21 6 4 -11 -17 -18 -17 -19 1
-28 24 -14 46 -37 36 -38 -4 -1 -23 0 -42 1 -22 1 -31 -2 -27 -9 5 -7 -1 -11
-15 -11 -16 0 -20 -5 -16 -20 6 -22 -8 -28 -16 -7 -3 6 -4 -4 -3 -24 2 -26 -2
-35 -10 -32 -7 2 -14 0 -17 -4 -3 -5 6 -9 21 -8 15 0 26 5 25 10 -1 6 18 11
41 13 24 1 53 5 66 7 27 5 59 -10 82 -39 31 -38 17 -67 -27 -56 -28 7 -51 6
-62 -3 -15 -11 -17 -31 -3 -22 6 3 10 2 10 -3 0 -6 15 -7 38 -2 32 8 35 7 19
-5 -13 -9 -15 -14 -5 -17 7 -3 -5 -13 -27 -24 -36 -17 -37 -19 -16 -22 l23 -4
-23 -16 c-13 -9 -28 -16 -34 -14 -5 1 -2 -4 8 -12 15 -12 16 -14 2 -20 -8 -3
-15 0 -15 7 -1 14 -23 -22 -26 -42 -2 -8 -10 -18 -18 -23 -9 -5 -16 -16 -16
-24 0 -8 -3 -13 -8 -10 -4 2 -12 -7 -19 -20 -6 -14 -7 -26 -2 -30 5 -3 7 -10
4 -15 -4 -5 2 -6 12 -2 16 6 16 5 4 -10 -11 -14 -17 -15 -28 -5 -11 9 -18 7
-31 -7 -14 -16 -14 -17 -1 -7 13 10 18 10 26 0 26 -34 37 -124 17 -132 -8 -3
-10 8 -6 36 4 30 2 39 -7 34 -7 -4 -11 -15 -9 -24 1 -10 -1 -23 -6 -30 -4 -7
-3 -19 4 -27 7 -9 9 -26 5 -45 -4 -18 -3 -30 4 -30 6 0 8 7 5 15 -4 8 -1 15 5
15 6 0 11 5 11 10 0 14 51 62 58 55 3 -3 -3 -14 -13 -26 -16 -16 -17 -22 -6
-29 14 -8 8 -41 -6 -39 -31 5 -54 -28 -31 -43 9 -5 6 -8 -9 -8 -12 0 -25 -5
-29 -12 -5 -8 -1 -9 12 -5 18 7 18 6 -1 -8 -16 -12 -17 -18 -7 -24 8 -5 14
-12 15 -17 1 -5 4 -8 7 -7 3 1 13 5 23 8 10 4 17 3 17 -4 0 -6 -4 -11 -10 -11
-14 0 -12 -27 3 -33 6 -3 -3 -11 -20 -18 -38 -15 -42 -24 -13 -26 11 -1 20 2
20 8 0 5 5 9 12 9 9 0 9 -3 1 -11 -6 -6 -9 -19 -6 -28 5 -13 3 -14 -8 -3 -18
17 -34 15 -19 -3 6 -8 9 -19 5 -25 -3 -5 1 -17 9 -26 9 -8 16 -11 16 -5 0 8 9
13 44 23 5 2 11 -7 12 -19 3 -16 -1 -23 -11 -23 -13 0 -14 -2 -3 -14 11 -12
13 -12 16 1 2 8 10 12 17 9 8 -3 16 0 19 7 2 7 5 2 5 -9 1 -21 31 -56 31 -36
0 6 -4 12 -9 14 -5 2 -12 18 -16 37 -6 29 -5 33 9 28 9 -4 16 -2 16 2 0 5 -5
11 -10 13 -7 2 -7 15 0 38 5 19 10 47 10 62 0 16 5 28 10 28 6 0 10 7 10 16 0
14 -3 14 -15 4 -19 -16 -20 3 -1 23 8 8 12 24 9 41 -3 16 -2 31 3 35 15 10 35
51 25 51 -10 0 -2 42 10 50 4 3 11 20 14 38 3 18 10 41 15 50 5 9 13 38 19 64
20 87 146 278 173 262 5 -3 17 4 27 15 10 12 26 21 35 21 9 0 16 5 16 10 0 6
7 10 15 10 8 0 14 5 12 11 -1 5 17 21 40 33 23 13 40 26 36 30 -6 5 2 7 49 10
9 1 28 12 43 26 26 23 27 23 16 3 -19 -37 -12 -38 15 -2 15 19 24 26 21 17 -8
-22 6 -23 24 -2 8 10 21 13 36 9 15 -3 23 -1 23 8 0 7 10 14 23 15 62 5 127 4
160 -2 25 -5 37 -3 37 4 0 6 5 8 10 5 6 -3 10 -1 10 4 0 6 5 11 11 11 5 0 7
-5 3 -11 -4 -7 1 -7 16 1 17 9 24 9 30 0 5 -8 9 -7 14 5 3 9 3 22 -1 28 -4 6
0 8 10 4 12 -4 14 -2 10 10 -5 13 -3 14 16 3 18 -9 20 -14 10 -26 -11 -14 1
-20 15 -7 3 4 14 8 22 9 11 2 14 -3 11 -16 -3 -12 0 -17 9 -13 7 2 10 11 7 19
-3 8 0 14 7 14 6 0 14 -9 17 -21 3 -11 9 -17 12 -12 3 4 16 14 29 21 20 11 23
11 20 -2 -2 -8 1 -14 7 -13 5 1 9 8 7 15 -4 17 15 15 21 -2 3 -7 0 -19 -6 -25
-8 -8 -8 -11 1 -11 6 0 22 11 36 25 14 14 31 25 38 25 8 0 6 -5 -5 -11 -9 -6
-14 -15 -11 -21 5 -8 1 -9 -12 -4 -15 6 -16 5 -7 -5 10 -10 16 -9 30 2 23 20
53 13 53 -11 0 -29 57 -39 154 -27 22 3 34 2 27 -2 -9 -6 -9 -10 1 -18 15 -12
90 -5 82 8 -3 5 5 8 18 8 13 -1 56 1 96 4 48 4 70 2 66 -5 -4 -6 2 -5 15 1 16
9 21 9 19 0 -2 -6 3 -14 10 -16 6 -3 12 0 12 6 0 6 5 11 11 11 6 0 7 -5 2 -12
-11 -19 -13 -38 -2 -38 4 0 13 9 19 20 6 11 16 20 23 20 8 0 6 -4 -3 -10 -13
-9 -13 -11 0 -20 8 -6 27 -9 43 -7 18 2 27 -1 27 -10 0 -10 12 -13 40 -11 22
1 45 -3 52 -10 7 -7 24 -12 39 -12 23 0 26 -3 22 -22 -4 -19 -3 -20 6 -8 9 13
11 13 11 -1 0 -14 28 -44 59 -63 10 -7 11 -4 3 11 -8 15 -7 19 8 19 11 0 16
-5 12 -15 -4 -11 0 -13 17 -8 14 3 24 0 28 -9 3 -9 13 -13 27 -9 11 2 15 2 9
-1 -17 -8 -16 -24 1 -24 8 0 17 -6 19 -12 4 -10 6 -10 6 0 1 19 19 14 26 -7 3
-11 11 -18 18 -16 16 6 48 -19 51 -40 1 -9 9 -21 17 -27 11 -7 11 -11 1 -15
-13 -5 -7 -23 9 -23 6 0 7 5 4 10 -3 6 -1 10 4 10 6 0 11 -12 11 -27 0 -22 2
-25 10 -13 7 11 10 6 11 -20 0 -19 3 -29 6 -23 7 20 32 -10 40 -47 3 -19 9
-27 13 -20 5 8 10 2 14 -15 4 -16 2 -33 -5 -41 -8 -10 -8 -14 0 -14 18 0 49
-72 34 -77 -7 -3 -13 -9 -13 -14 0 -6 4 -8 9 -5 5 3 12 -1 15 -10 3 -8 2 -12
-4 -9 -6 3 -7 -1 -4 -10 5 -12 9 -13 20 -4 8 7 18 9 21 5 4 -4 1 -11 -7 -17
-13 -8 -12 -11 3 -20 15 -9 16 -13 5 -27 -9 -12 -6 -12 10 2 12 11 22 14 22 8
0 -6 -4 -14 -10 -17 -5 -3 -10 -13 -10 -22 0 -14 3 -13 22 3 l22 19 -17 -25
c-22 -32 -21 -37 5 -43 18 -5 19 -8 8 -21 -8 -10 -8 -16 -2 -16 6 0 14 5 17
10 3 6 12 10 18 10 8 0 8 -3 -1 -9 -7 -4 -15 -20 -16 -35 -3 -22 0 -26 17 -20
13 4 17 2 13 -5 -4 -6 -4 -28 0 -48 4 -21 9 -32 11 -26 4 10 8 9 19 -1 19 -20
18 -36 -3 -37 -14 0 -13 -2 4 -9 27 -11 56 -63 43 -76 -9 -9 0 -61 17 -104 12
-30 15 -46 15 -82 0 -21 4 -38 8 -38 9 0 25 -58 21 -77 -1 -7 3 -13 8 -13 6 0
8 -17 5 -41 -3 -27 -1 -39 6 -34 5 3 10 2 10 -4 0 -5 -5 -11 -12 -13 -7 -3 -5
-7 5 -11 15 -6 17 -1 14 26 -2 18 -5 37 -8 42 -2 6 -4 21 -4 35 0 14 -4 28
-10 32 -6 5 -5 8 3 8 6 0 12 9 12 20 0 10 8 24 18 29 9 6 14 11 10 11 -5 0 0
8 10 18 9 11 21 17 25 14 5 -2 8 4 7 14 -4 35 0 45 13 38 9 -6 9 -5 0 8 -18
21 17 52 51 46 14 -3 31 -1 38 3 11 7 10 9 -1 9 -11 0 -11 4 1 23 16 24 29 77
19 77 -4 0 -7 21 -8 47 -2 38 -8 52 -28 66 -14 10 -25 23 -25 29 0 6 6 5 15
-2 9 -7 18 -10 22 -7 10 10 12 58 2 51 -5 -3 -9 2 -9 10 0 9 -4 16 -9 16 -14
0 -7 -30 9 -40 8 -5 11 -12 7 -16 -4 -4 -16 3 -27 16 -18 21 -25 20 -21 -3 1
-5 -3 -6 -9 -2 -6 3 -8 10 -5 15 3 4 -2 13 -10 20 -12 10 -10 16 13 37 17 16
20 24 10 20 -10 -3 -20 -2 -23 3 -4 6 -1 10 6 10 8 0 8 4 -2 16 -11 13 -10 17
5 26 17 9 17 10 -1 25 -13 10 -15 16 -5 19 6 3 12 12 12 20 0 8 7 14 15 14 8
0 15 5 15 11 0 6 -9 8 -22 4 -13 -3 -18 -3 -13 2 11 9 16 75 5 68 -3 -2 -5 15
-4 38 1 23 6 43 11 44 5 2 7 22 5 44 -3 28 0 44 9 50 12 8 12 11 -1 20 -11 8
-12 12 -2 16 17 7 15 23 -3 23 -8 0 -15 -4 -15 -10 0 -5 -4 -10 -10 -10 -5 0
-10 7 -10 16 0 8 4 13 9 10 11 -7 48 21 39 30 -4 4 -14 1 -23 -6 -9 -7 -18
-10 -22 -6 -3 3 -1 6 5 6 7 0 12 9 12 20 0 13 5 18 15 14 10 -4 15 0 15 11 0
9 -4 13 -10 10 -5 -3 -10 -1 -10 6 0 6 -8 18 -17 26 -16 13 -16 13 5 3 33 -16
35 -8 6 23 -22 24 -24 30 -12 44 7 9 8 14 2 10 -6 -3 -17 5 -24 18 -7 14 -20
25 -28 25 -10 0 -12 7 -8 28 5 20 4 23 -4 12 -7 -11 -10 -12 -10 -2 0 9 -8 11
-22 8 l-23 -6 23 11 c12 7 22 16 22 21 0 5 -10 7 -22 4 -13 -3 -18 -3 -12 -1
13 7 6 65 -8 65 -5 0 -6 -4 -3 -10 3 -5 1 -10 -4 -10 -6 0 -11 7 -11 15 0 9
-7 18 -15 21 -8 4 -15 14 -15 23 0 14 -2 14 -10 1 -7 -10 -10 -11 -10 -2 0 7
-8 16 -17 19 -10 4 -24 13 -31 20 -7 7 -25 13 -40 14 -23 0 -24 2 -8 8 18 7
18 8 2 14 -9 4 -14 11 -11 17 4 6 -1 7 -11 3 -13 -5 -16 -2 -12 9 7 17 -22 21
-35 4 -6 -7 -7 -4 -3 7 3 10 6 23 6 28 0 6 6 7 13 3 6 -4 2 3 -10 15 -12 11
-27 21 -33 21 -5 0 -10 7 -10 15 0 8 -4 16 -10 16 -20 3 -25 5 -40 14 -8 5
-23 8 -33 7 -10 -2 -16 2 -15 10 2 7 -5 12 -14 12 -10 -1 -17 1 -16 5 2 18 -4
21 -22 11 -25 -13 -27 5 -2 20 14 8 12 9 -10 4 -22 -5 -28 -2 -28 10 0 9 -8
16 -17 16 -13 0 -14 3 -5 12 7 7 12 16 12 22 0 6 -5 5 -12 -2 -9 -9 -14 -6
-23 11 -6 12 -17 21 -25 19 -7 -2 -10 3 -7 11 4 10 -8 18 -36 27 -23 8 -45 13
-49 12 -17 -4 -7 17 10 21 10 3 6 5 -10 6 -16 0 -27 -2 -25 -6 1 -5 -3 -10 -8
-13 -6 -3 -11 6 -13 19 -3 19 -8 22 -33 19 -16 -3 -27 -2 -24 0 3 3 -9 13 -25
23 -17 11 -30 23 -30 29 0 15 -40 12 -41 -2 0 -7 -4 -3 -9 10 -5 12 -15 22
-22 21 -10 0 -10 -2 0 -6 6 -2 10 -9 7 -14 -4 -5 -12 -3 -19 4 -8 6 -12 15
-10 18 2 4 -10 9 -28 13 -22 4 -37 1 -50 -11 -18 -16 -18 -16 -12 0 3 9 2 17
-4 17 -6 0 -13 -6 -15 -12 -4 -8 -6 -7 -6 4 -1 9 6 18 14 20 10 2 8 6 -9 14
-21 10 -23 9 -18 -10 5 -18 4 -18 -10 -5 -9 7 -14 17 -11 22 2 4 -11 7 -29 6
-27 0 -30 -2 -13 -9 19 -8 19 -9 -1 -9 -14 -1 -24 7 -27 19 -4 17 -12 20 -44
19 -21 -1 -48 4 -60 12 l-23 14 23 12 c21 12 20 12 -8 8 -21 -4 -37 1 -55 16
-14 11 -19 18 -12 14 6 -3 12 -1 12 5 0 6 -8 9 -17 6 -39 -12 -73 -14 -68 -5
4 5 10 7 14 5 4 -3 8 2 8 10 0 10 -4 11 -11 4 -5 -5 -16 -10 -24 -10 -11 0
-12 3 -3 14 10 12 6 14 -24 11 -19 -2 -33 0 -30 5 3 5 -4 14 -16 21 -18 9 -19
13 -8 21 10 6 6 7 -11 2 -14 -4 -28 -11 -31 -16 -4 -6 -9 -6 -13 1 -4 6 -2 11
3 11 24 0 9 26 -16 28 -15 1 -29 6 -32 10 -12 17 -43 22 -64 10 -20 -10 -21
-10 -8 5 15 19 14 19 -13 8z m-136 -31 c0 -5 -2 -10 -4 -10 -3 0 -8 5 -11 10
-3 6 -1 10 4 10 6 0 11 -4 11 -10z m245 -20 c3 -5 1 -10 -4 -10 -6 0 -11 5
-11 10 0 6 2 10 4 10 3 0 8 -4 11 -10z m-455 -20 c-8 -5 -18 -6 -24 -3 -5 4
-1 10 10 13 24 9 34 2 14 -10z m105 -10 c-3 -5 -11 -10 -16 -10 -6 0 -7 5 -4
10 3 6 11 10 16 10 6 0 7 -4 4 -10z m432 -16 c-7 -7 -37 7 -37 17 0 6 9 5 21
-1 11 -7 19 -14 16 -16z m-677 -14 c0 -5 -5 -10 -11 -10 -5 0 -7 5 -4 10 3 6
8 10 11 10 2 0 4 -4 4 -10z m-80 -60 c-8 -5 -19 -10 -25 -10 -5 0 -3 5 5 10 8
5 20 10 25 10 6 0 3 -5 -5 -10z m-276 -43 c-3 -8 -11 -14 -19 -14 -11 0 -12 4
-4 14 6 7 15 13 20 13 5 0 6 -6 3 -13z m-184 -17 c0 -5 -2 -10 -4 -10 -3 0 -8
5 -11 10 -3 6 -1 10 4 10 6 0 11 -4 11 -10z m430 -15 c-7 -9 -15 -13 -19 -10
-3 3 1 10 9 15 21 14 24 12 10 -5z m-350 -57 c-11 -12 -23 -18 -27 -15 -3 4
-2 7 4 7 6 0 13 9 16 21 3 12 10 18 16 14 7 -4 4 -14 -9 -27z m-80 7 c11 -13
10 -14 -4 -9 -9 3 -16 10 -16 15 0 13 6 11 20 -6z m44 3 c-3 -4 -9 -8 -15 -8
-5 0 -9 4 -9 8 0 5 7 9 15 9 8 0 12 -4 9 -9z m1686 -8 c0 -5 -2 -10 -4 -10 -3
0 -8 5 -11 10 -3 6 -1 10 4 10 6 0 11 -4 11 -10z m-1749 -23 c-6 -6 -11 -19
-11 -28 0 -21 -22 -40 -35 -31 -13 9 -18 35 -6 28 5 -4 15 7 22 23 8 18 18 27
27 24 9 -4 10 -9 3 -16z m16 -29 c-3 -8 -6 -5 -6 6 -1 11 2 17 5 13 3 -3 4
-12 1 -19z m1868 2 c3 -5 1 -10 -4 -10 -6 0 -11 5 -11 10 0 6 2 10 4 10 3 0 8
-4 11 -10z m-1958 -28 c-4 -26 -25 -58 -32 -50 -4 3 -2 15 4 26 8 15 8 22 -2
25 -7 3 -4 6 6 6 11 1 15 6 11 13 -4 7 -3 8 4 4 7 -4 10 -15 9 -24z m-77 -21
c0 -17 -18 -21 -24 -6 -3 9 0 15 9 15 8 0 15 -4 15 -9z m121 -48 c-12 -8 -21
-21 -21 -29 0 -8 -4 -14 -10 -14 -6 0 -5 10 2 25 6 14 15 25 19 25 4 0 10 12
15 28 7 26 8 26 12 4 2 -16 -3 -29 -17 -39z m2014 47 c-3 -5 -12 -10 -18 -10
-7 0 -6 4 3 10 19 12 23 12 15 0z m-2121 -54 c-3 -9 -10 -16 -15 -16 -6 0 -5
9 1 21 13 24 24 20 14 -5z m60 -2 c3 -8 2 -12 -4 -9 -6 3 -10 10 -10 16 0 14
7 11 14 -7z m-114 -68 c0 -3 -4 -8 -10 -11 -5 -3 -10 -1 -10 4 0 6 5 11 10 11
6 0 10 -2 10 -4z m2571 -163 c-8 -15 -10 -15 -11 -2 0 17 10 32 18 25 2 -3 -1
-13 -7 -23z m38 -12 c7 -5 12 -13 10 -18 -2 -6 -13 -2 -23 8 -20 19 -12 26 13
10z m-1469 -125 c0 -3 -4 -8 -10 -11 -5 -3 -10 -1 -10 4 0 6 5 11 10 11 6 0
10 -2 10 -4z m1594 -12 c3 -8 2 -12 -4 -9 -6 3 -10 10 -10 16 0 14 7 11 14 -7z
m-2740 -3 c7 -11 -14 -20 -31 -13 -7 2 -10 8 -7 13 7 12 31 12 38 0z m1241 -1
c-3 -5 -11 -10 -16 -10 -6 0 -7 5 -4 10 3 6 11 10 16 10 6 0 7 -4 4 -10z
m1535 -20 c0 -5 -2 -10 -4 -10 -3 0 -8 5 -11 10 -3 6 -1 10 4 10 6 0 11 -4 11
-10z m-1396 -38 c3 -5 -1 -9 -9 -9 -8 0 -15 4 -15 9 0 4 4 8 9 8 6 0 12 -4 15
-8z m526 -52 c0 -5 -5 -10 -11 -10 -5 0 -7 5 -4 10 3 6 8 10 11 10 2 0 4 -4 4
-10z m240 -102 c0 -5 -4 -8 -10 -8 -5 0 -10 10 -10 23 0 18 2 19 10 7 5 -8 10
-18 10 -22z m17 0 c-3 -8 -6 -5 -6 6 -1 11 2 17 5 13 3 -3 4 -12 1 -19z
m-2180 6 c-3 -3 -12 -4 -19 -1 -8 3 -5 6 6 6 11 1 17 -2 13 -5z m-125 -350
c-3 -17 -8 -22 -15 -15 -7 7 -6 15 3 26 17 20 18 19 12 -11z m5 -75 c0 -24 -2
-27 -10 -14 -5 9 -6 23 -3 31 8 22 13 17 13 -17z m103 -63 c0 -2 -7 -7 -16
-10 -8 -3 -12 -2 -9 4 6 10 25 14 25 6z m2710 -180 c0 -3 -4 -8 -10 -11 -5 -3
-10 -1 -10 4 0 6 5 11 10 11 6 0 10 -2 10 -4z m290 -113 c0 -22 -14 -14 -28
15 -25 50 -24 57 2 27 14 -16 26 -36 26 -42z m-60 -23 c0 -5 -5 -10 -11 -10
-5 0 -7 5 -4 10 3 6 8 10 11 10 2 0 4 -4 4 -10z m68 -13 c0 -7 4 -22 7 -34 5
-15 3 -23 -4 -23 -7 0 -10 4 -7 9 3 5 -5 20 -18 34 -13 14 -22 28 -19 30 8 9
40 -4 41 -16z m-18 -47 c-20 -13 -33 -13 -25 0 3 6 14 10 23 10 15 0 15 -2 2
-10z m87 -22 c-3 -7 -5 -2 -5 12 0 14 2 19 5 13 2 -7 2 -19 0 -25z m-77 2 c0
-5 -4 -10 -10 -10 -5 0 -10 5 -10 10 0 6 5 10 10 10 6 0 10 -4 10 -10z m-20
-60 c0 -5 -2 -10 -4 -10 -3 0 -8 5 -11 10 -3 6 -1 10 4 10 6 0 11 -4 11 -10z
m-13 -36 c-3 -3 -12 -4 -19 -1 -8 3 -5 6 6 6 11 1 17 -2 13 -5z m-12 -32 c-3
-3 -11 0 -18 7 -9 10 -8 11 6 5 10 -3 15 -9 12 -12z m25 -54 c0 -15 -15 -8
-28 12 -12 19 -11 20 8 8 11 -7 20 -16 20 -20z m-120 -2 c0 -3 -4 -8 -10 -11
-5 -3 -10 -1 -10 4 0 6 5 11 10 11 6 0 10 -2 10 -4z m40 -146 c0 -5 -4 -10
-10 -10 -5 0 -10 5 -10 10 0 6 5 10 10 10 6 0 10 -4 10 -10z"/>
<path d="M5095 9020 c-3 -5 -1 -10 4 -10 6 0 11 5 11 10 0 6 -2 10 -4 10 -3 0
-8 -4 -11 -10z"/>
<path d="M3940 8910 c-9 -6 -10 -10 -3 -10 6 0 15 5 18 10 8 12 4 12 -15 0z"/>
<path d="M3592 8709 c2 -7 10 -15 17 -17 8 -3 12 1 9 9 -2 7 -10 15 -17 17 -8
3 -12 -1 -9 -9z"/>
<path d="M3543 8612 c-14 -23 -3 -44 17 -32 10 6 11 14 4 29 -9 21 -9 21 -21
3z"/>
<path d="M5971 7904 c0 -11 3 -14 6 -6 3 7 2 16 -1 19 -3 4 -6 -2 -5 -13z"/>
<path d="M3419 7709 c-2 -44 -10 -73 -21 -80 -10 -7 -9 -9 3 -9 10 0 19 12 23
31 5 24 10 30 23 25 14 -6 14 -4 -2 16 -11 13 -21 25 -22 27 -2 2 -3 -2 -4
-10z"/>
<path d="M3394 7590 c0 -13 4 -16 10 -10 7 7 7 13 0 20 -6 6 -10 3 -10 -10z"/>
<path d="M6151 7574 c0 -11 3 -14 6 -6 3 7 2 16 -1 19 -3 4 -6 -2 -5 -13z"/>
<path d="M3393 7542 c0 -12 5 -22 9 -22 11 0 10 12 -2 30 -7 12 -9 10 -7 -8z"/>
<path d="M3380 7501 c0 -5 9 -7 20 -4 11 3 20 7 20 9 0 2 -9 4 -20 4 -11 0
-20 -4 -20 -9z"/>
<path d="M6610 7425 c0 -4 6 -13 14 -21 16 -16 40 -19 31 -4 -8 12 -45 33 -45
25z"/>
<path d="M6625 7354 c-16 -15 -25 -23 -18 -20 6 3 14 0 16 -6 3 -8 6 -5 6 5 1
13 6 17 20 12 16 -5 19 -1 18 15 -2 25 -5 25 -42 -6z"/>
<path d="M3505 7220 c3 -5 8 -10 11 -10 2 0 4 5 4 10 0 6 -5 10 -11 10 -5 0
-7 -4 -4 -10z"/>
<path d="M5928 7203 c7 -3 16 -2 19 1 4 3 -2 6 -13 5 -11 0 -14 -3 -6 -6z"/>
<path d="M5705 7181 c-3 -5 2 -11 10 -15 8 -3 17 -1 20 3 3 5 -2 11 -10 15 -8
3 -17 1 -20 -3z"/>
<path d="M5500 7165 c-14 -17 -45 -21 -35 -5 3 6 -1 10 -9 10 -10 0 -13 -6
-10 -17 5 -15 3 -15 -10 1 -9 11 -16 14 -16 8 0 -7 -7 -12 -15 -12 -8 0 -15
-4 -15 -10 0 -5 -5 -10 -11 -10 -5 0 -7 5 -4 10 3 6 -3 10 -14 10 -11 0 -22
-9 -26 -21 -4 -12 -10 -17 -14 -11 -7 11 -51 -19 -51 -36 0 -10 -41 -41 -70
-53 -11 -5 -7 -9 12 -14 16 -4 26 -11 23 -15 -3 -5 9 -7 27 -5 23 3 29 2 18
-5 -26 -16 -4 -21 27 -5 16 8 49 17 72 20 23 3 48 6 54 8 7 1 11 -4 9 -12 -3
-12 0 -12 12 -2 9 7 14 16 12 20 -2 3 27 6 65 5 39 0 72 3 75 8 3 4 21 8 40 8
19 0 34 5 34 11 0 6 7 9 15 5 8 -3 20 3 27 12 13 17 58 25 58 10 0 -4 7 -8 15
-8 8 0 14 3 14 8 -3 19 2 25 11 12 8 -12 10 -11 10 7 0 16 -4 21 -15 17 -8 -4
-15 -1 -15 5 0 6 6 11 13 11 8 0 7 3 -2 9 -11 7 -21 3 -37 -14 l-22 -24 -6 22
c-5 18 -8 19 -15 7 -5 -8 -7 -19 -4 -25 2 -5 -5 1 -16 15 -18 21 -22 23 -31
10 -8 -12 -10 -12 -10 -1 0 9 -7 11 -22 8 -12 -4 -27 -2 -33 3 -6 5 -22 10
-35 12 -14 2 -35 9 -46 16 -18 9 -24 9 -34 -3z m-190 -69 c0 -3 -4 -8 -10 -11
-5 -3 -10 -1 -10 4 0 6 5 11 10 11 6 0 10 -2 10 -4z m-10 -54 c0 -16 -41 -33
-58 -23 -14 9 -13 10 11 11 15 0 27 5 27 10 0 6 5 10 10 10 6 0 10 -3 10 -8z"/>
<path d="M3550 7155 c0 -8 6 -14 12 -12 7 1 14 -9 16 -22 2 -15 0 -21 -7 -16
-6 3 -9 10 -7 14 3 4 -5 8 -17 8 -17 2 -19 0 -7 -7 12 -7 12 -12 2 -22 -19
-19 -14 -30 8 -18 14 7 20 7 20 0 0 -5 -5 -10 -12 -10 -6 0 -3 -9 7 -20 10
-11 13 -20 7 -20 -6 0 -19 -3 -29 -7 -16 -6 -16 -5 -4 10 11 15 11 17 -2 17
-8 0 -17 6 -20 13 -3 9 -9 8 -22 -5 -17 -16 -17 -17 3 -11 18 4 22 1 22 -16 0
-13 -6 -21 -16 -21 -10 0 -14 -6 -11 -14 3 -7 0 -19 -6 -25 -8 -8 -6 -11 7
-11 10 0 31 15 47 33 19 21 29 27 29 16 0 -8 -9 -25 -20 -37 -12 -12 -16 -22
-10 -22 6 0 13 7 16 15 4 8 10 13 15 10 4 -3 5 -13 2 -22 -6 -15 -5 -16 9 -3
9 8 12 18 6 21 -5 3 -8 21 -7 40 2 19 -1 40 -5 47 -4 7 -4 12 1 12 15 0 14 71
-1 86 -19 18 -26 18 -26 -1z"/>
<path d="M3510 7150 c0 -5 5 -10 10 -10 6 0 10 5 10 10 0 6 -4 10 -10 10 -5 0
-10 -4 -10 -10z"/>
<path d="M5886 7125 c-3 -9 3 -19 14 -25 14 -7 20 -7 20 0 0 5 -7 10 -15 10
-9 0 -12 6 -9 15 4 8 4 15 1 15 -3 0 -7 -7 -11 -15z"/>
<path d="M3447 7116 c-18 -14 -18 -14 0 -19 22 -7 60 -3 69 6 4 4 -1 7 -12 7
-16 0 -17 2 -4 10 10 7 11 10 2 10 -7 0 -15 -7 -18 -15 -4 -8 -13 -15 -21 -15
-13 0 -13 3 -3 15 15 18 11 19 -13 1z"/>
<path d="M5930 7116 c0 -2 7 -7 16 -10 8 -3 12 -2 9 4 -6 10 -25 14 -25 6z"/>
<path d="M5848 7103 c7 -3 16 -2 19 1 4 3 -2 6 -13 5 -11 0 -14 -3 -6 -6z"/>
<path d="M3430 7080 c0 -6 7 -10 15 -10 8 0 15 2 15 4 0 2 -7 6 -15 10 -8 3
-15 1 -15 -4z"/>
<path d="M4200 7055 c-9 -11 -17 -12 -30 -5 -24 13 -33 13 -25 0 3 -5 1 -10
-4 -10 -6 0 -11 6 -12 13 0 6 -5 2 -11 -11 -7 -14 -17 -20 -27 -17 -9 3 -33
-3 -53 -14 -25 -12 -39 -15 -41 -7 -6 17 -19 0 -21 -27 -1 -19 -4 -23 -13 -15
-7 6 -11 14 -8 18 3 4 -2 10 -10 14 -17 6 -21 -9 -5 -19 19 -11 10 -49 -16
-71 -23 -21 -24 -25 -12 -48 10 -19 17 -23 28 -16 12 8 12 10 -5 11 -11 0 -14
3 -7 6 6 2 12 9 12 14 0 6 -5 7 -12 3 -7 -4 -8 -3 -4 5 5 8 12 9 19 3 21 -17
178 -1 206 20 14 11 14 11 3 -3 -10 -14 -10 -18 4 -23 22 -8 26 -8 19 4 -3 6
-1 10 4 10 6 0 11 -6 11 -13 0 -7 9 -13 20 -14 11 -1 20 2 20 8 0 5 -8 9 -17
9 -15 0 -16 2 -3 10 10 6 16 6 18 0 2 -6 10 -10 18 -10 9 0 12 -5 8 -11 -4 -8
1 -9 17 -3 13 4 32 8 41 8 9 0 14 4 11 9 -3 5 -11 6 -19 3 -8 -3 -14 1 -14 9
0 11 10 14 41 11 l40 -3 -5 48 c-4 41 -3 47 8 37 7 -7 11 -20 8 -28 -4 -12 -2
-13 9 -2 7 6 16 12 21 12 4 0 6 -6 4 -12 -1 -7 -1 -10 1 -5 3 4 9 5 14 1 5 -3
9 -1 9 5 0 6 -13 17 -28 25 -15 8 -33 26 -39 39 -14 29 -52 45 -63 27 -4 -7
-12 -10 -18 -6 -6 3 -13 0 -15 -6 -4 -10 -6 -10 -6 -1 -1 9 -11 10 -33 6 -30
-6 -32 -5 -19 10 7 9 9 17 3 17 -5 0 -15 -7 -22 -15z m145 -15 c3 -5 2 -10 -4
-10 -5 0 -13 5 -16 10 -3 6 -2 10 4 10 5 0 13 -4 16 -10z"/>
<path d="M5500 6999 c0 -5 5 -7 10 -4 6 3 10 8 10 11 0 2 -4 4 -10 4 -5 0 -10
-5 -10 -11z"/>
<path d="M3528 6879 c-17 -18 -17 -19 2 -19 12 0 17 -5 14 -14 -3 -8 -2 -16 3
-19 4 -3 9 6 9 19 1 13 -2 24 -7 24 -4 0 -6 7 -3 15 8 19 3 18 -18 -6z"/>
<path d="M5618 6893 c7 -3 16 -2 19 1 4 3 -2 6 -13 5 -11 0 -14 -3 -6 -6z"/>
<path d="M5654 6893 c4 -5 20 -8 36 -8 15 0 26 3 23 8 -2 4 -18 7 -35 7 -17 0
-28 -3 -24 -7z"/>
<path d="M3860 6881 c0 -5 -10 -12 -22 -14 -20 -4 -19 -4 5 -6 18 -1 27 4 27
14 0 8 -2 15 -5 15 -3 0 -5 -4 -5 -9z"/>
<path d="M5488 6884 c-4 -3 -12 -6 -20 -7 -28 -5 -78 -30 -78 -40 0 -6 -2 -8
-5 -5 -7 6 -93 -77 -121 -117 -33 -47 -38 -74 -19 -95 16 -18 12 -46 -5 -35
-5 3 -8 -8 -8 -25 1 -30 18 -44 18 -15 0 22 32 55 53 55 12 0 16 4 11 13 -5 7
0 6 11 -3 17 -14 18 -13 12 3 -4 11 -2 17 8 17 8 0 15 4 15 8 0 8 52 42 64 42
3 0 6 -17 6 -38 0 -46 24 -98 51 -113 56 -29 169 -7 169 33 0 10 5 16 10 13 6
-4 11 9 12 29 0 20 1 42 2 49 1 14 16 27 31 27 6 0 3 -5 -5 -10 -12 -8 -11
-10 8 -10 12 0 31 -9 41 -19 11 -11 22 -17 25 -14 3 3 13 -2 22 -12 15 -14 15
-18 3 -26 -10 -7 -8 -9 11 -7 14 2 33 -4 43 -12 10 -8 29 -15 42 -15 22 -1 23
1 10 15 -8 9 -15 24 -15 34 0 9 -11 22 -25 28 -19 9 -22 14 -13 21 9 6 8 7 -5
3 -19 -6 -67 12 -67 26 0 5 -6 8 -12 7 -21 -2 -58 12 -58 23 0 5 -3 7 -8 4 -4
-2 -32 1 -62 8 -48 11 -57 11 -68 -3 -10 -14 -12 -14 -10 -1 2 11 -7 15 -39
16 -28 1 -40 -3 -36 -10 4 -7 3 -8 -4 -1 -15 14 -24 73 -13 80 6 3 10 12 10
18 0 7 -5 4 -11 -6 -8 -14 -14 -16 -25 -6 -8 6 -14 16 -14 21 0 7 5 6 13 -1
11 -8 17 -5 27 15 13 23 15 24 21 7 7 -16 8 -17 8 0 1 15 19 22 44 18 5 -1 6
3 2 9 -7 11 -48 14 -57 4z m-64 -70 c3 -8 2 -12 -4 -9 -6 3 -10 10 -10 16 0
14 7 11 14 -7z m36 -54 c0 -13 -1 -13 -11 0 -8 11 -9 8 -5 -15 5 -22 4 -26 -4
-15 -8 13 -10 12 -11 -5 -1 -17 -2 -17 -6 -3 -4 17 -7 17 -36 2 l-32 -16 30
25 c21 18 32 22 37 14 5 -7 8 -1 8 14 0 14 3 29 7 32 8 9 23 -12 23 -33z
m-123 -46 c-3 -3 -12 -4 -19 -1 -8 3 -5 6 6 6 11 1 17 -2 13 -5z m-13 -60 c3
-8 2 -12 -4 -9 -6 3 -10 10 -10 16 0 14 7 11 14 -7z m236 -19 c0 -8 -4 -15
-10 -15 -5 0 -10 7 -10 15 0 8 5 15 10 15 6 0 10 -7 10 -15z"/>
<path d="M5303 6793 c-15 -5 -17 -23 -4 -23 5 0 11 7 15 15 3 8 4 15 3 14 -1
0 -8 -3 -14 -6z"/>
<path d="M5488 6773 c7 -3 16 -2 19 1 4 3 -2 6 -13 5 -11 0 -14 -3 -6 -6z"/>
<path d="M4277 6744 c-23 -12 -30 -34 -11 -34 3 0 2 5 -1 10 -9 15 13 12 40
-6 14 -9 32 -14 40 -10 10 4 19 -3 27 -19 13 -29 3 -62 -15 -47 -17 13 -61 26
-54 15 3 -4 -19 -8 -50 -8 -30 1 -57 -3 -59 -7 -3 -4 -16 -8 -29 -8 -24 0 -87
-29 -93 -42 -2 -5 -10 -8 -18 -8 -9 0 -12 -5 -8 -11 4 -7 1 -10 -7 -7 -7 2
-28 -10 -48 -28 -30 -29 -33 -35 -21 -51 12 -15 12 -16 0 -5 -20 17 -35 15
-20 -3 11 -13 10 -14 -6 -8 -17 6 -18 5 -4 -12 14 -17 13 -18 -5 -11 -15 5
-17 4 -8 -5 6 -6 17 -8 25 -3 7 5 21 7 31 6 12 -2 19 5 23 27 4 17 11 31 17
31 16 0 47 42 40 54 -3 6 -3 8 1 4 5 -4 17 2 29 12 25 24 33 19 41 -25 4 -21
13 -35 21 -35 9 0 12 -6 8 -15 -8 -23 46 -65 84 -65 17 0 35 5 38 10 3 6 14
10 24 10 19 0 55 44 57 70 1 8 5 24 10 34 4 12 4 17 -2 13 -6 -4 -9 6 -6 24 5
36 25 37 60 2 31 -31 58 -38 66 -16 4 11 1 13 -14 8 -15 -5 -18 -3 -14 9 4 10
1 16 -7 17 -8 0 1 6 18 12 18 7 34 14 35 17 8 15 -36 51 -97 81 -83 39 -101
42 -138 23z m77 -25 c-3 -5 -13 -9 -22 -9 -15 0 -15 2 -2 10 12 8 11 10 -7 10
-13 0 -23 4 -23 9 0 6 12 6 30 0 16 -6 27 -15 24 -20z m56 -49 c0 -5 -5 -10
-11 -10 -5 0 -7 5 -4 10 3 6 8 10 11 10 2 0 4 -4 4 -10z m-139 -124 c-6 -7 -8
-15 -5 -19 3 -3 -1 -4 -10 -3 -8 1 -19 6 -23 11 -4 4 -2 5 5 1 6 -4 12 -2 12
3 0 6 -6 11 -12 12 -7 0 -4 4 7 8 25 11 39 3 26 -13z"/>
<path d="M5498 6753 c7 -3 16 -2 19 1 4 3 -2 6 -13 5 -11 0 -14 -3 -6 -6z"/>
<path d="M4008 6693 c7 -3 16 -2 19 1 4 3 -2 6 -13 5 -11 0 -14 -3 -6 -6z"/>
<path d="M3945 6659 c-4 -6 -5 -12 -2 -15 2 -3 7 2 10 11 7 17 1 20 -8 4z"/>
<path d="M6480 6658 c0 -2 7 -21 15 -43 9 -27 14 -33 15 -18 0 12 3 29 7 39 4
12 3 15 -5 10 -7 -4 -12 -2 -12 3 0 6 -4 11 -10 11 -5 0 -10 -1 -10 -2z"/>
<path d="M4515 6630 c-3 -5 -1 -10 4 -10 6 0 11 -5 11 -10 0 -7 -6 -7 -19 0
-24 12 -31 13 -31 2 0 -9 50 -35 55 -30 4 4 8 31 6 46 -1 14 -17 16 -26 2z"/>
<path d="M4380 6600 c0 -5 5 -10 10 -10 6 0 10 5 10 10 0 6 -4 10 -10 10 -5 0
-10 -4 -10 -10z"/>
<path d="M5906 6601 c-4 -7 -5 -15 -2 -18 9 -9 19 4 14 18 -4 11 -6 11 -12 0z"/>
<path d="M4505 6569 c-4 -5 -3 -23 0 -40 5 -22 4 -29 -4 -25 -6 4 -11 2 -11
-3 0 -17 46 -13 61 5 12 15 11 16 -9 9 -21 -6 -23 -5 -13 13 6 12 11 25 11 30
0 14 -28 23 -35 11z m25 -19 c0 -5 -2 -10 -4 -10 -3 0 -8 5 -11 10 -3 6 -1 10
4 10 6 0 11 -4 11 -10z"/>
<path d="M5810 6548 c0 -12 3 -18 7 -14 11 10 12 36 2 36 -5 0 -9 -10 -9 -22z"/>
<path d="M5310 6537 c0 -5 -10 -5 -22 -1 -20 6 -21 5 -9 -9 15 -18 58 -16 53
3 -2 8 5 9 19 5 14 -5 19 -4 15 4 -8 12 -56 11 -56 -2z"/>
<path d="M5435 6510 c-3 -5 -1 -10 4 -10 6 0 11 5 11 10 0 6 -2 10 -4 10 -3 0
-8 -4 -11 -10z"/>
<path d="M5461 6494 c0 -11 3 -14 6 -6 3 7 2 16 -1 19 -3 4 -6 -2 -5 -13z"/>
<path d="M5335 6490 c3 -5 8 -10 11 -10 2 0 4 5 4 10 0 6 -5 10 -11 10 -5 0
-7 -4 -4 -10z"/>
<path d="M4435 6479 c-4 -6 -4 -13 -1 -16 3 -4 6 -1 6 6 0 7 5 9 12 5 7 -4 8
-3 4 4 -9 15 -13 15 -21 1z"/>
<path d="M5465 6470 c-16 -7 -17 -9 -3 -9 9 -1 20 4 23 9 7 11 7 11 -20 0z"/>
<path d="M4426 6405 c-3 -9 0 -15 9 -15 16 0 20 16 6 24 -5 3 -11 -1 -15 -9z"/>
<path d="M4367 6356 c-4 -10 -1 -13 9 -9 15 6 19 23 5 23 -5 0 -11 -7 -14 -14z"/>
<path d="M6647 6004 c-9 -10 -9 -26 1 -21 4 3 8 -6 9 -20 0 -14 5 -28 10 -32
10 -7 10 -19 -1 -43 -4 -9 -9 -25 -10 -35 -2 -14 -11 -18 -37 -17 -57 3 -79 8
-79 18 0 5 -3 6 -7 3 -15 -15 31 -47 67 -47 36 0 105 39 71 40 -11 0 -11 3 3
13 20 15 27 47 14 64 -5 7 -7 17 -3 23 3 5 1 10 -5 10 -6 0 -9 4 -6 9 7 11
-18 44 -27 35z"/>
<path d="M5024 5707 l-27 -24 24 3 c13 1 30 3 38 3 8 1 11 7 7 17 -5 14 -4 15
8 5 11 -10 19 -10 33 -1 16 10 16 11 -4 7 -13 -3 -26 -1 -29 4 -8 14 -21 11
-50 -14z"/>
<path d="M4673 5603 c-7 -2 -13 -9 -13 -15 0 -12 41 -6 41 7 1 12 -11 15 -28
8z"/>
<path d="M5408 5157 c-55 -10 -59 -18 -20 -38 44 -22 45 -22 38 -11 -5 8 12
10 55 8 34 -3 65 -10 69 -16 5 -8 9 -8 13 3 5 14 -36 56 -58 58 -5 0 -19 2
-30 3 -11 1 -41 -2 -67 -7z"/>
<path d="M5305 5140 c-18 -8 -17 -9 8 -9 15 -1 27 4 27 9 0 12 -8 12 -35 0z"/>
<path d="M5255 5130 c-3 -5 -2 -10 4 -10 5 0 13 5 16 10 3 6 2 10 -4 10 -5 0
-13 -4 -16 -10z"/>
<path d="M5160 5119 c0 -5 -4 -8 -9 -5 -4 3 -17 -1 -27 -10 -18 -14 -18 -15 6
-8 14 5 35 8 47 7 19 -1 20 1 8 13 -16 17 -25 18 -25 3z"/>
<path d="M4611 5112 c-1 -8 -9 -10 -26 -6 -24 6 -37 -10 -15 -18 6 -2 -26 -2
-71 -2 -69 1 -82 -1 -92 -17 -7 -11 -18 -19 -25 -19 -7 0 -10 -4 -7 -10 3 -5
2 -10 -3 -10 -6 0 -8 -10 -4 -22 l5 -22 8 23 c7 18 12 20 29 11 14 -8 20 -8
20 0 0 6 5 8 10 5 6 -3 10 1 10 10 0 9 5 13 10 10 6 -4 8 -11 5 -16 -4 -5 6
-9 20 -9 20 0 26 4 21 15 -3 8 -2 14 2 14 24 -4 42 2 36 13 -5 8 0 9 14 6 12
-4 24 -3 26 1 3 4 43 6 91 5 85 -1 100 6 62 30 -12 8 -24 6 -47 -7 -16 -10
-30 -14 -30 -9 0 13 -30 11 -31 -2 -1 -6 -5 0 -9 14 -4 14 -8 19 -9 12z"/>
<path d="M5070 5080 c-9 -6 -10 -10 -3 -10 6 0 15 5 18 10 8 12 4 12 -15 0z"/>
<path d="M4800 5059 c0 -5 5 -7 10 -4 6 3 10 8 10 11 0 2 -4 4 -10 4 -5 0 -10
-5 -10 -11z"/>
<path d="M4985 5059 c5 -6 55 0 55 7 0 3 -13 3 -29 2 -16 -1 -28 -5 -26 -9z"/>
<path d="M6375 4891 c3 -6 -3 -14 -12 -20 -10 -5 -15 -12 -12 -16 8 -7 39 22
39 36 0 5 -5 9 -11 9 -5 0 -8 -4 -4 -9z"/>
<path d="M4845 4800 c-4 -6 -11 -8 -16 -4 -6 3 -9 -2 -7 -12 2 -13 -2 -18 -13
-16 -11 1 -15 -5 -14 -20 1 -16 8 -23 22 -22 14 0 19 -5 16 -17 -3 -12 1 -17
14 -16 10 1 17 -4 15 -11 -2 -9 4 -11 18 -7 13 4 22 1 26 -9 8 -20 44 -21 44
-1 0 9 6 12 15 9 9 -4 15 -1 15 7 0 8 7 27 15 43 8 15 12 33 8 38 -3 6 9 2 28
-8 19 -10 35 -22 37 -26 2 -4 12 1 22 9 10 9 17 20 14 25 -9 14 -84 47 -84 36
0 -6 -7 -7 -16 -4 -8 3 -12 2 -9 -4 3 -6 -1 -7 -9 -4 -9 3 -16 10 -16 15 0 5
-8 9 -17 9 -15 0 -16 -2 -3 -10 9 -6 10 -10 3 -10 -6 0 -15 5 -18 10 -8 13
-82 13 -90 0z m197 -20 c2 -6 13 -12 26 -13 22 -1 29 -12 14 -21 -5 -3 -21 6
-38 19 -16 13 -24 24 -17 25 6 0 13 -5 15 -10z"/>
<path d="M6320 4780 c-8 -5 -12 -11 -9 -14 2 -3 11 -1 19 4 8 5 12 11 9 14 -2
3 -11 1 -19 -4z"/>
<path d="M6140 4770 c0 -5 5 -10 11 -10 5 0 7 5 4 10 -3 6 -8 10 -11 10 -2 0
-4 -4 -4 -10z"/>
<path d="M6271 4731 c-19 -12 -23 -57 -6 -71 11 -9 12 -7 8 9 -3 14 0 23 11
27 9 3 16 15 16 25 0 21 -8 23 -29 10z"/>
<path d="M6075 4680 c10 -11 20 -20 23 -20 3 0 -3 9 -13 20 -10 11 -20 20 -23
20 -3 0 3 -9 13 -20z"/>
<path d="M6225 4670 c4 -14 -4 -30 -29 -56 -19 -20 -39 -33 -44 -30 -12 7 -35
-18 -25 -27 3 -4 -1 -15 -9 -24 -23 -26 -27 -58 -6 -57 10 1 14 -4 11 -12 -3
-8 -9 -14 -15 -14 -5 0 -6 -5 -3 -10 4 -7 14 -3 24 9 10 11 22 17 27 13 5 -4
0 4 -11 17 -19 23 -19 24 -1 18 14 -6 17 -3 12 8 -7 18 5 20 22 3 9 -9 15 -9
24 0 9 9 9 15 0 24 -14 14 -16 48 -2 48 5 0 7 -8 4 -17 -5 -14 -4 -15 4 -4 5
7 16 10 23 7 8 -4 5 0 -6 9 -15 13 -17 18 -6 22 11 5 11 7 0 14 -11 7 -11 9
-1 9 26 0 40 23 29 47 -13 28 -31 30 -22 3z m-25 -154 c0 -5 -7 -3 -15 4 -8 7
-15 20 -15 28 0 13 3 12 15 -4 8 -10 15 -23 15 -28z"/>
<path d="M6139 4663 c-13 -17 -13 -17 6 -3 11 8 22 16 24 17 2 2 0 3 -6 3 -6
0 -17 -8 -24 -17z"/>
<path d="M5740 4611 c0 -5 11 -16 25 -25 30 -20 32 -13 5 14 -22 22 -30 25
-30 11z"/>
<path d="M5970 4600 c0 -5 5 -10 10 -10 6 0 10 5 10 10 0 6 -4 10 -10 10 -5 0
-10 -4 -10 -10z"/>
<path d="M5670 4573 c0 -3 7 -14 16 -24 8 -9 16 -26 17 -38 1 -11 4 -21 8 -21
3 0 11 -10 18 -22 10 -21 11 -21 8 -3 -2 11 2 27 10 34 20 18 29 5 12 -16 -12
-15 -12 -16 4 -10 13 5 26 -1 43 -20 13 -14 24 -22 24 -18 0 4 7 2 15 -5 18
-15 19 -9 3 25 -11 24 -13 25 -19 8 -6 -15 -8 -14 -18 12 -10 23 -14 26 -21
15 -8 -12 -10 -12 -10 -2 0 8 -10 28 -22 44 l-21 30 -14 -28 -13 -29 5 28 c3
15 2 27 -2 26 -5 -1 -15 -1 -23 0 -13 1 -13 2 0 11 13 8 12 10 -2 10 -10 0
-18 -3 -18 -7z m80 -52 c0 -5 -7 -14 -15 -21 -16 -14 -18 -10 -9 14 6 17 24
22 24 7z"/>
<path d="M5810 4560 c0 -13 5 -18 15 -14 12 5 13 10 4 20 -15 19 -19 18 -19
-6z"/>
<path d="M6076 4545 c4 -8 12 -15 20 -15 19 0 18 16 -2 24 -22 9 -24 8 -18 -9z"/>
<path d="M5856 4533 c-9 -9 -8 -43 2 -42 18 3 33 -2 28 -9 -2 -4 5 -9 17 -9
20 -2 20 -1 5 8 -10 6 -18 15 -18 20 0 15 -26 39 -34 32z"/>
<path d="M5651 4513 c-1 -16 5 -23 17 -23 10 0 13 3 6 8 -6 4 -14 14 -17 22
-4 10 -6 8 -6 -7z"/>
<path d="M5520 4500 c0 -5 5 -10 10 -10 6 0 10 5 10 10 0 6 -4 10 -10 10 -5 0
-10 -4 -10 -10z"/>
<path d="M5595 4490 c27 -12 43 -12 25 0 -8 5 -22 9 -30 9 -10 0 -8 -3 5 -9z"/>
<path d="M6050 4489 c0 -5 -4 -7 -10 -4 -5 3 -11 0 -12 -7 0 -7 -2 -18 -2 -24
-1 -6 -10 -19 -20 -29 -15 -16 -21 -17 -38 -6 -18 11 -20 11 -14 -3 8 -21 14
-43 9 -33 -3 4 -18 -2 -33 -13 l-29 -20 -6 20 c-6 20 -25 19 -25 -1 0 -6 5 -7
11 -3 7 4 10 1 7 -7 -3 -8 -14 -13 -24 -12 -10 1 -22 -4 -26 -10 -5 -8 -10 -4
-14 11 -4 15 -14 22 -30 22 -13 0 -24 -5 -24 -11 0 -7 9 -9 21 -6 17 5 18 3 8
-9 -10 -12 -9 -17 1 -27 10 -10 11 -9 5 2 -5 9 -4 12 3 7 7 -4 12 -14 12 -22
0 -8 5 -14 12 -14 6 0 9 -3 6 -6 -4 -3 -16 -1 -27 5 -24 13 -64 -6 -56 -26 2
-7 0 -13 -6 -13 -5 0 -15 14 -21 31 -7 19 -13 27 -18 19 -5 -8 -9 -5 -13 9 -3
14 2 26 16 36 l21 15 -22 20 c-12 12 -22 27 -22 35 0 8 -9 15 -19 15 -10 0
-21 7 -25 15 -3 8 -1 15 3 15 5 0 12 -6 14 -12 3 -8 6 -6 6 5 1 9 -5 17 -13
17 -34 0 -29 -45 6 -56 16 -5 17 -9 8 -17 -10 -9 -14 -9 -17 1 -3 6 -11 12
-18 12 -7 0 -16 6 -18 13 -3 6 -6 1 -6 -12 -1 -18 3 -22 16 -17 10 4 14 4 10
0 -4 -5 3 -14 15 -21 13 -7 19 -12 13 -13 -5 0 -24 9 -42 19 -23 14 -33 29
-36 53 -3 23 -4 20 -3 -12 1 -38 -3 -47 -22 -55 -13 -6 -20 -16 -17 -23 3 -8
2 -18 -1 -24 -9 -14 -24 11 -24 40 0 12 -5 22 -11 22 -6 0 -8 -9 -4 -20 5 -15
2 -20 -12 -20 -14 0 -15 -2 -4 -9 10 -6 5 -13 -20 -25 -35 -18 -48 -14 -30 7
9 11 8 17 -4 27 -10 8 -15 9 -15 1 0 -6 -16 -27 -35 -47 -19 -20 -32 -41 -28
-46 3 -7 1 -8 -5 -4 -7 4 -12 17 -12 29 -1 20 -2 20 -11 4 -5 -9 -7 -22 -3
-29 4 -7 3 -8 -5 -4 -7 4 -15 -2 -20 -16 -8 -22 -9 -22 -15 10 -4 18 -12 29
-17 26 -6 -3 -6 -10 -1 -17 5 -7 6 -21 1 -32 -7 -18 -8 -18 -9 5 0 22 -2 23
-11 7 -5 -9 -7 -22 -4 -27 9 -14 -1 -12 -17 3 -8 9 -21 11 -33 6 -11 -4 -14
-8 -7 -8 18 -1 4 -21 -14 -21 -8 0 -12 5 -9 10 11 17 -7 11 -21 -7 -7 -10 -16
-14 -21 -9 -4 5 -2 11 5 13 22 8 13 18 -17 18 -16 0 -27 -3 -24 -7 2 -5 -1 -8
-7 -8 -7 0 -8 -6 -2 -17 7 -11 6 -25 -1 -42 -9 -19 -9 -25 1 -29 14 -4 16 -48
2 -57 -5 -3 -7 -12 -3 -20 3 -8 1 -15 -5 -15 -5 0 -13 -7 -16 -15 -4 -11 0
-15 11 -13 10 2 19 -4 21 -14 3 -14 -1 -15 -32 -6 -34 11 -49 28 -25 28 5 0 7
5 4 10 -9 15 -22 12 -29 -5 -3 -8 4 -24 16 -35 l22 -20 -26 2 c-15 1 -25 5
-22 9 6 10 -6 39 -16 39 -5 0 -6 -10 -3 -22 4 -18 3 -20 -6 -8 -9 13 -12 12
-25 -5 -15 -20 -15 -20 -16 -1 0 16 -3 17 -12 8 -13 -13 -48 -16 -48 -4 0 10
-62 33 -69 26 -3 -3 1 -9 9 -14 8 -6 11 -10 5 -10 -5 0 -16 4 -24 9 -12 8 -12
12 -2 25 8 9 9 16 3 16 -6 0 -12 -4 -14 -9 -1 -4 -14 -12 -27 -16 -20 -6 -23
-4 -18 9 6 14 3 16 -14 11 -15 -5 -19 -4 -15 4 11 17 -3 13 -40 -10 -35 -21
-48 -16 -17 7 10 7 15 15 11 19 -3 3 -15 -1 -26 -10 -25 -22 -18 -58 9 -50 13
4 19 1 19 -9 0 -10 6 -13 15 -10 8 4 15 2 15 -4 0 -15 55 -31 90 -27 16 2 30
-1 30 -6 0 -6 5 -7 12 -3 16 10 168 11 168 2 0 -13 25 -4 32 12 5 12 7 12 7
-2 1 -18 41 -26 41 -9 0 5 14 8 31 6 17 -3 44 2 59 10 22 11 30 12 33 2 3 -6
6 -3 6 8 1 17 3 17 11 5 7 -11 10 -11 10 -2 0 7 4 11 9 8 5 -3 26 2 47 11 22
9 49 15 62 14 12 -1 22 3 22 9 0 7 8 10 20 7 10 -3 27 1 37 8 9 7 23 11 30 8
7 -3 13 0 13 7 0 6 5 8 11 4 6 -3 15 -1 19 6 4 6 19 13 34 13 14 1 26 8 26 15
0 7 5 10 10 7 6 -3 10 -2 10 3 0 6 12 13 27 17 37 9 137 56 141 67 2 4 10 8
18 8 9 0 12 5 8 12 -5 7 -1 10 12 6 10 -2 27 4 37 14 9 10 14 18 10 18 -4 0 3
7 15 16 12 8 27 12 32 9 6 -3 10 -2 10 4 0 5 12 14 28 19 15 6 21 11 15 11
-24 2 -13 17 21 31 19 7 35 16 34 19 -2 19 3 31 13 31 7 0 22 11 35 25 22 24
52 36 39 16 -3 -5 0 -13 6 -16 6 -5 10 0 9 11 -5 42 -1 48 18 33 15 -13 16
-12 4 3 -8 9 -11 26 -8 36 9 28 -20 36 -37 12 -8 -11 -17 -17 -20 -13 -10 9
-9 25 1 19 5 -3 16 4 25 15 14 16 14 19 2 19 -8 0 -15 -5 -15 -11z m17 -64
c-15 -16 -19 -13 -11 9 3 9 10 13 15 10 5 -3 3 -11 -4 -19z m-497 -101 c-1 -4
4 -11 12 -15 10 -7 9 -9 -4 -9 -13 0 -18 8 -17 28 0 15 3 21 6 15 2 -7 4 -15
3 -19z m72 4 c-16 -16 17 -41 35 -26 9 7 13 7 13 0 0 -17 -21 -25 -32 -14 -8
8 -15 6 -25 -4 -17 -16 -33 -18 -33 -4 0 6 7 10 16 10 8 0 13 4 10 9 -8 13 4
41 17 41 8 0 7 -4 -1 -12z m218 -13 c-7 -9 -15 -13 -17 -11 -7 7 7 26 19 26 6
0 6 -6 -2 -15z m-160 -54 c0 -10 -6 -21 -14 -24 -11 -4 -11 -1 -2 19 13 29 16
30 16 5z m91 6 c-6 -8 -9 -17 -6 -21 3 -3 -1 -1 -7 4 -10 9 -10 13 2 20 21 13
24 12 11 -3z m-141 -29 c0 -5 -5 -8 -11 -8 -5 0 -7 5 -3 11 5 8 1 8 -14 0 -16
-8 -23 -7 -33 6 -12 14 -11 15 8 9 12 -4 24 -2 28 5 6 8 10 7 16 -2 5 -8 9
-17 9 -21z m79 13 c8 -14 7 -20 -3 -24 -9 -4 -13 3 -13 19 0 29 3 30 16 5z
m-159 -8 c0 -7 5 -13 10 -13 6 0 10 -4 10 -10 0 -15 -16 -12 -34 5 -8 8 -20
15 -26 15 -15 0 9 -24 34 -33 12 -5 26 -1 38 10 17 15 20 15 28 3 6 -8 10 -18
10 -22 0 -11 -31 -38 -43 -37 -9 0 -8 2 1 6 21 8 13 21 -13 19 -15 0 -23 -6
-21 -13 3 -8 -1 -10 -11 -6 -11 4 -14 2 -9 -5 4 -7 0 -22 -8 -34 -15 -21 -16
-19 -10 35 4 35 2 57 -4 57 -6 0 -9 -11 -7 -25 1 -17 -3 -25 -14 -25 -12 0
-13 -2 -3 -8 16 -10 5 -42 -14 -42 -8 0 -14 -10 -15 -22 0 -21 -1 -22 -8 -4
-7 19 -8 19 -13 -2 -6 -22 -28 -31 -28 -12 0 6 5 10 10 10 6 0 10 4 10 10 0 5
-13 7 -30 4 -25 -5 -30 -3 -30 12 0 16 2 17 10 4 8 -11 9 -8 6 13 -4 22 -2 27
9 23 7 -2 32 8 54 25 35 25 46 42 43 70 -1 3 15 5 34 5 20 -1 34 -6 34 -13z
m-460 -86 c0 -5 -4 -5 -10 -2 -5 3 -10 14 -10 23 0 15 2 15 10 2 5 -8 10 -19
10 -23z m263 -16 c-12 -8 -13 -41 -1 -41 5 0 7 -4 4 -8 -3 -5 4 -23 15 -41 20
-33 20 -49 0 -36 -6 3 -11 13 -11 21 0 8 -5 12 -10 9 -6 -4 -8 -16 -4 -27 6
-20 5 -19 -15 1 -21 21 -47 29 -37 12 11 -16 -48 -20 -66 -4 -16 14 -17 13
-13 -15 2 -23 0 -29 -11 -25 -8 3 -14 0 -14 -6 0 -6 -7 -8 -15 -5 -15 6 -21
25 -7 23 19 -3 33 2 27 11 -4 7 -13 7 -26 0 -11 -6 -24 -8 -29 -5 -6 3 -10 2
-10 -3 0 -13 -53 -22 -64 -11 -6 6 -6 13 2 21 7 7 12 20 12 30 0 10 8 19 18
19 16 1 16 2 0 6 -10 2 -18 8 -18 13 0 5 7 7 15 3 10 -3 15 -1 13 7 -2 7 7 13
20 15 12 1 22 -2 22 -6 0 -4 7 -10 16 -13 8 -3 13 -2 10 3 -3 5 2 15 11 22 15
12 16 12 10 -3 -4 -12 -2 -18 8 -18 8 0 14 -6 13 -12 -2 -7 8 -14 22 -15 22
-2 23 -1 4 5 -16 5 -19 12 -13 27 5 13 8 15 8 5 1 -13 2 -13 11 0 8 13 11 13
19 1 6 -10 11 -5 16 20 7 29 9 31 16 14 4 -11 8 -14 8 -7 1 6 8 12 16 12 8 0
15 5 15 11 0 5 5 7 11 3 7 -4 7 -9 2 -13z m-263 -27 c0 -8 -5 -12 -10 -9 -6 4
-8 11 -5 16 9 14 15 11 15 -7z m300 -59 c0 -5 -5 -3 -10 5 -5 8 -10 20 -10 25
0 6 5 3 10 -5 5 -8 10 -19 10 -25z m60 5 c0 -5 -4 -10 -10 -10 -5 0 -10 5 -10
10 0 6 5 10 10 10 6 0 10 -4 10 -10z m-155 -60 c3 -5 -1 -10 -10 -10 -9 0 -13
5 -10 10 3 6 8 10 10 10 2 0 7 -4 10 -10z m-578 -66 c-3 -3 -12 -4 -19 -1 -8
3 -5 6 6 6 11 1 17 -2 13 -5z"/>
<path d="M5610 4200 c0 -5 5 -10 10 -10 6 0 10 5 10 10 0 6 -4 10 -10 10 -5 0
-10 -4 -10 -10z"/>
<path d="M5471 4154 c0 -11 3 -14 6 -6 3 7 2 16 -1 19 -3 4 -6 -2 -5 -13z"/>
<path d="M5451 4144 c0 -11 3 -14 6 -6 3 7 2 16 -1 19 -3 4 -6 -2 -5 -13z"/>
<path d="M5431 4134 c0 -11 3 -14 6 -6 3 7 2 16 -1 19 -3 4 -6 -2 -5 -13z"/>
<path d="M5118 4003 c7 -3 16 -2 19 1 4 3 -2 6 -13 5 -11 0 -14 -3 -6 -6z"/>
<path d="M5410 4480 c0 -5 5 -10 10 -10 6 0 10 5 10 10 0 6 -4 10 -10 10 -5 0
-10 -4 -10 -10z"/>
<path d="M5540 4475 c-10 -12 -10 -15 2 -15 8 0 15 7 15 15 0 8 -1 15 -2 15
-2 0 -8 -7 -15 -15z"/>
<path d="M5780 4450 c0 -5 5 -10 10 -10 6 0 10 5 10 10 0 6 -4 10 -10 10 -5 0
-10 -4 -10 -10z"/>
<path d="M5700 4428 c11 -12 20 -28 20 -35 0 -7 5 -13 10 -13 6 0 10 -8 10
-17 0 -14 3 -14 20 5 24 26 24 28 4 36 -8 3 -12 2 -9 -4 3 -6 -1 -7 -10 -4 -9
4 -14 12 -11 19 6 16 -13 35 -36 35 -18 0 -18 -1 2 -22z"/>
<path d="M4270 4421 c0 -5 -9 -13 -20 -16 -18 -6 -19 -8 -4 -22 13 -13 19 -14
42 -3 15 8 32 13 39 11 6 -1 14 2 17 7 2 4 -7 7 -22 6 -15 -1 -27 -2 -27 -3 0
-2 -9 -4 -20 -6 -19 -3 -19 -3 -2 9 19 15 22 26 7 26 -5 0 -10 -4 -10 -9z"/>
<path d="M5365 4419 c-4 -6 -5 -12 -2 -15 2 -3 7 2 10 11 7 17 1 20 -8 4z"/>
<path d="M5533 4405 c0 -11 4 -12 14 -4 7 6 13 13 13 15 0 2 -6 4 -13 4 -8 0
-14 -7 -14 -15z"/>
<path d="M4334 4358 c0 -13 5 -27 10 -31 8 -6 7 -10 -1 -14 -7 -2 -13 -9 -13
-15 0 -6 6 -6 15 2 8 7 15 10 15 6 0 -3 16 0 35 8 l35 15 -14 -27 c-7 -15 -11
-33 -8 -41 2 -7 -1 -17 -8 -21 -9 -5 -9 -9 -1 -14 6 -4 11 -3 11 3 0 5 9 9 19
8 11 -1 17 -6 14 -14 -4 -9 0 -11 13 -6 14 5 16 3 11 -11 -6 -14 -3 -17 8 -12
10 4 19 -3 27 -18 6 -15 16 -22 24 -19 8 3 14 -1 14 -11 0 -9 12 -21 28 -26
15 -6 34 -14 42 -18 8 -5 27 -5 43 -1 16 4 27 3 27 -2 0 -6 5 -7 11 -3 7 4 10
1 7 -7 -3 -8 -11 -13 -17 -11 -7 1 -9 -3 -6 -9 4 -6 16 -9 26 -6 11 3 19 1 19
-4 0 -5 -5 -9 -12 -9 -9 0 -9 -3 0 -12 9 -9 15 -10 20 -2 11 16 42 13 42 -5 0
-12 2 -13 13 -2 10 11 10 14 0 18 -16 6 -17 29 -1 39 7 4 8 3 4 -4 -4 -7 -2
-12 4 -12 6 0 13 7 16 15 4 8 10 12 15 9 5 -3 7 -10 4 -15 -4 -5 -1 -9 5 -9 6
0 13 6 16 14 4 12 10 12 35 -1 16 -8 29 -19 29 -24 0 -6 5 -7 11 -3 7 4 7 9 2
13 -6 3 -2 14 8 25 17 18 18 18 12 -3 -4 -15 -1 -21 11 -21 10 0 15 4 12 8 -3
5 1 9 8 9 10 0 11 -8 4 -34 -5 -19 -7 -40 -4 -46 2 -7 5 -2 5 11 1 21 21 33
21 12 0 -14 31 0 56 25 20 20 20 24 7 50 -11 20 -17 24 -23 15 -6 -9 -10 -8
-19 6 -10 18 -10 18 -11 -3 0 -13 -4 -23 -8 -23 -11 0 -9 41 2 60 9 13 8 13
-7 1 -9 -7 -17 -10 -17 -5 0 5 -7 -2 -16 -14 l-15 -22 -20 22 -21 23 5 -23 c4
-18 3 -21 -8 -12 -10 8 -15 8 -21 -1 -4 -7 0 -17 9 -24 10 -7 17 -16 17 -20 0
-5 -9 0 -21 11 -12 11 -18 26 -15 37 4 15 0 18 -15 14 -26 -7 -24 2 4 12 19 8
18 9 -12 8 -20 0 -39 6 -46 16 -10 14 -15 13 -46 -10 -19 -15 -29 -21 -23 -14
6 7 9 23 6 36 -3 19 -7 21 -17 12 -7 -7 -11 -17 -8 -23 2 -5 -1 -21 -7 -35
-10 -22 -10 -22 -6 -2 5 27 -10 41 -17 16 -4 -15 -5 -15 -6 2 0 11 6 33 14 48
13 25 13 29 -1 34 -8 3 -18 3 -21 -1 -4 -3 0 -6 8 -6 8 0 4 -7 -10 -16 -18
-13 -20 -18 -10 -25 7 -4 10 -11 7 -14 -4 -4 -13 -3 -20 1 -7 5 -21 7 -30 6
-9 -2 -22 6 -28 17 -8 16 -8 21 2 22 7 0 -3 6 -22 13 -19 7 -39 22 -45 34 -5
12 -17 22 -25 22 -20 -1 -50 -24 -50 -39 0 -6 -4 -11 -10 -11 -14 0 -12 12 6
38 8 12 10 22 5 22 -6 0 -11 8 -11 18 0 12 -9 17 -33 18 -17 1 -35 -3 -39 -9
-4 -7 -11 0 -17 16 -13 33 -17 34 -17 5z m466 -197 c0 -11 -4 -23 -10 -26 -6
-4 -10 5 -10 19 0 14 5 26 10 26 6 0 10 -9 10 -19z m-199 -34 c-10 -9 -11 -8
-5 6 3 10 9 15 12 12 3 -3 0 -11 -7 -18z m144 -7 c3 -5 1 -10 -4 -10 -6 0 -11
5 -11 10 0 6 2 10 4 10 3 0 8 -4 11 -10z m235 0 c0 -5 -2 -10 -4 -10 -3 0 -8
5 -11 10 -3 6 -1 10 4 10 6 0 11 -4 11 -10z m-250 -31 c0 -6 -4 -7 -10 -4 -5
3 -10 11 -10 16 0 6 5 7 10 4 6 -3 10 -11 10 -16z m330 1 c0 -15 -33 -50 -48
-50 -9 0 -6 9 10 29 24 31 38 38 38 21z"/>
<path d="M4300 4360 c0 -5 5 -10 10 -10 6 0 10 5 10 10 0 6 -4 10 -10 10 -5 0
-10 -4 -10 -10z"/>
<path d="M5442 4356 c7 -8 15 -12 17 -11 5 6 -10 25 -20 25 -5 0 -4 -6 3 -14z"/>
<path d="M6044 4340 c0 -13 4 -16 10 -10 7 7 7 13 0 20 -6 6 -10 3 -10 -10z"/>
<path d="M5337 4329 c-4 -15 -2 -16 14 -6 23 14 24 24 5 24 -8 0 -17 -8 -19
-18z"/>
<path d="M4615 4319 c-4 -6 -13 -8 -21 -5 -7 3 -16 1 -19 -3 -7 -12 20 -33 30
-23 4 4 2 -3 -4 -15 -10 -20 -9 -23 10 -23 17 0 20 -4 16 -22 l-6 -23 20 24
c13 16 16 27 9 36 -5 6 -7 15 -3 18 3 4 -2 7 -11 7 -13 0 -17 6 -13 20 6 22 2
26 -8 9z"/>
<path d="M5130 4304 c0 -8 5 -12 10 -9 6 4 8 11 5 16 -9 14 -15 11 -15 -7z"/>
<path d="M5350 4305 c0 -8 5 -15 10 -15 6 0 10 7 10 15 0 8 -4 15 -10 15 -5 0
-10 -7 -10 -15z"/>
<path d="M5730 4303 c0 -17 12 -16 35 1 19 13 18 14 -8 13 -15 -1 -27 -8 -27
-14z"/>
<path d="M4533 4290 c2 -8 12 -16 23 -17 13 -2 15 -1 4 4 -8 3 -19 11 -23 17
-6 7 -7 6 -4 -4z"/>
<path d="M5020 4290 c0 -5 5 -10 10 -10 6 0 10 5 10 10 0 6 -4 10 -10 10 -5 0
-10 -4 -10 -10z"/>
<path d="M5150 4285 c-10 -12 -10 -15 2 -15 8 0 15 7 15 15 0 8 -1 15 -2 15
-2 0 -8 -7 -15 -15z"/>
<path d="M4746 4242 c-2 -4 -1 -14 4 -22 7 -11 9 -9 7 8 -1 24 -3 26 -11 14z"/>
<path d="M4975 4229 c-4 -11 -4 -23 -1 -26 3 -4 6 1 6 10 0 19 16 23 22 5 3
-9 6 -9 11 -1 4 7 -1 17 -12 22 -16 9 -21 7 -26 -10z"/>
<path d="M4836 4232 c-2 -4 -1 -14 4 -22 7 -11 9 -9 7 8 -1 24 -3 26 -11 14z"/>
<path d="M5185 4230 c-3 -5 -1 -10 4 -10 6 0 11 5 11 10 0 6 -2 10 -4 10 -3 0
-8 -4 -11 -10z"/>
<path d="M4906 4210 c-18 -18 -18 -19 3 -13 12 3 21 12 21 19 0 17 -1 17 -24
-6z"/>
<path d="M5150 4219 c0 -5 5 -7 10 -4 6 3 10 8 10 11 0 2 -4 4 -10 4 -5 0 -10
-5 -10 -11z"/>
<path d="M4480 4160 c0 -11 4 -20 9 -20 5 0 7 9 4 20 -3 11 -7 20 -9 20 -2 0
-4 -9 -4 -20z"/>
<path d="M5046 4171 c-4 -6 -12 -9 -17 -6 -5 4 -6 -2 -2 -11 4 -12 8 -14 11
-6 3 10 7 10 18 1 16 -13 18 -2 5 20 -6 9 -11 10 -15 2z"/>
<path d="M4510 4090 c0 -8 -3 -26 -6 -40 -4 -20 -3 -22 5 -10 6 8 11 11 11 5
0 -5 5 -2 11 9 9 14 7 22 -5 34 -13 14 -16 14 -16 2z"/>
<path d="M4800 4054 c0 -8 5 -12 10 -9 6 3 10 10 10 16 0 5 -4 9 -10 9 -5 0
-10 -7 -10 -16z"/>
<path d="M4610 4043 c0 -15 -2 -16 -11 -3 -9 13 -10 12 -5 -2 3 -10 1 -18 -4
-18 -6 0 -10 4 -10 9 0 5 -9 11 -20 14 -11 3 -20 1 -20 -4 0 -5 7 -9 15 -9 8
0 15 -5 15 -11 0 -7 -9 -9 -22 -6 -20 6 -20 5 -3 -11 13 -13 19 -14 22 -4 3 6
8 10 12 7 5 -2 18 6 30 19 15 15 19 26 12 31 -6 3 -11 -2 -11 -12z"/>
<path d="M4837 4047 c-3 -8 -2 -20 3 -26 5 -9 8 -4 8 13 0 29 -3 32 -11 13z"/>
<path d="M4896 4009 c-15 -17 -25 -33 -22 -36 4 -4 14 4 23 16 11 16 18 19 23
11 5 -7 8 -2 8 14 0 14 -1 26 -2 26 0 -1 -14 -14 -30 -31z"/>
</g>
</svg>
